<svg xmlns="http://www.w3.org/2000/svg" width="100" height="100"><circle fill="#223447" cx="50.001" cy="50" r="50"/><path fill="#fff" d="M50 10c22.093 0 40 17.909 40 40s-17.906 40-40 40c-22.091 0-40-17.909-40-40s17.91-40 40-40z"/><path fill="#DAD9D9" d="M50 10.015c-11.806 0-22.413 5.119-29.733 13.254 7.085-6.373 16.456-10.254 26.733-10.254 22.085 0 39.986 17.902 39.986 39.985 0 10.277-3.881 19.646-10.254 26.729 8.139-7.319 13.256-17.924 13.256-29.729 0-22.083-17.902-39.985-39.988-39.985z"/><path fill="#223447" d="M-27 46c2.209 0 4 1.791 4 4s-1.791 4-4 4h-19c-2.209 0-4-1.791-4-4s1.791-4 4-4h19z"/><path fill="#223447" d="M49.486-21.219c1.172-1.17 2.986-1.259 4.254.006l16.971 16.971c1.265 1.265 1.18 3.065.008 4.234-1.174 1.171-2.983 1.273-4.251.008l-16.971-16.971c-1.266-1.265-1.184-3.079-.011-4.248z"/><path fill="#223447" d="M46 43.1c3.825-2.21 8.72-.898 10.927 2.927 2.209 3.824.897 8.718-2.928 10.926-3.827 2.209-8.717.898-10.927-2.93-2.207-3.823-.898-8.714 2.928-10.923z"/><path fill="#E44D41" d="M-19.799-53.74c-.781.781-.781 2.048 0 2.828s2.048.781 2.828 0l18.385-18.385c.781-.781.781-2.048 0-2.828s-2.048-.781-2.828 0l-18.385 18.385z"/></svg>